<svg xmlns="http://www.w3.org/2000/svg" viewBox="0 0 900 600">
  <rect width="900" height="600" fill="#de2910"/>
  <g fill="#ffde00">
    <polygon points="150,100 164,145 210,145 172,172 186,218 150,192 114,218 128,172 90,145 136,145"/>
    <polygon points="255,45 262,68 286,68 266,82 274,105 255,91 236,105 244,82 224,68 248,68"/>
    <polygon points="300,105 307,128 331,128 311,142 319,165 300,151 281,165 289,142 269,128 293,128"/>
    <polygon points="300,195 307,218 331,218 311,232 319,255 300,241 281,255 289,232 269,218 293,218"/>
    <polygon points="255,255 262,278 286,278 266,292 274,315 255,301 236,315 244,292 224,278 248,278"/>
  </g>
</svg>
